<?xml version="1.0" encoding="UTF-8"?><svg xmlns="http://www.w3.org/2000/svg" viewBox="0 0 3650 3650"><defs><style>.cls-1{fill:#6cf;}</style></defs><g id="LOGO_MAIN_2"><rect class="cls-1" x="520.71365" y="1863.34078" width="2749.99998" height="110.99903" rx="22.09968" ry="22.09968" transform="translate(-773.05737 1527.25429) rotate(-36.99998)"/><g><path d="M860.87451,2365.84668l7.27197-5.48047,11.2207,14.89062,11.56689,14.62988,19.04541-14.35156,19.65283-14.26758-1.82666-2.42383-1.82666-2.42383,7.61865-5.74023,7.87891-5.39551,17.22266,22.85547c11.83203,15.70215,18.23682,24.44824,19.22412,26.23145,.98633,1.79395,1.85938,3.67285,2.61426,5.63086,.35156,1.90723,.44629,4.19434,.27588,6.85059-.34131,2.42969-1.0293,4.39746-2.06787,5.90137-1.03467,1.50977-2.24805,2.78027-3.6333,3.82422l-2.42432,1.82617-2.87061-3.80859-2.87012-3.80957-19.3916,14.61328-19.39209,14.6123,17.22217,22.85449c6.95947,9.23633,11.61182,15.41016,13.96045,18.52637s3.83984,5.34375,4.48096,6.66699c.57861,1.73633,1.07666,3.35352,1.48535,4.85352,.00049,1.44141,.00586,2.88867,.00977,4.33594-.23242,1.61621-.80615,3.50098-1.72119,5.64062-1.09619,1.91113-2.45264,3.47656-4.06543,4.69238l-2.42383,1.82617-21.91943-29.08789-21.91895-29.08789-20.43066,15.39551-20.43066,15.39551,.26562,2.51465c.23145,1.27539,.23682,2.72266,.00977,4.33594-.40332,1.38965-.96045,2.81152-1.68115,4.25293-.72217,1.45215-1.91455,2.9873-3.58838,4.60449l-2.77002,2.08691-23.22412-30.81934-23.48486-31.16504,7.27197-5.47949,7.61816-5.74023,1.82666,2.42383,1.82666,2.42383,19.47705-15.21973,19.3916-14.61328-10.87402-15.15137-11.2207-14.89062,7.61816-5.74023Zm.04297,56.97461l-19.73828,14.87402,13.83008,18.35254,13.83008,18.35352,19.73828-14.87402,19.13037-14.95996-13.56885-18.00684-13.83008-18.35254-19.3916,14.61328Zm54.02002-40.70703l-19.39209,14.6123,13.83008,18.35254,13.83008,18.35352,19.39209-14.6123,19.3916-14.61328-13.83008-18.35352-13.83008-18.35254-19.3916,14.61328Z"/><path d="M1278.93408,2054.61719l6.92578-5.21875,2.87012,3.80859c1.91602,2.54297,3.24951,4.79688,4.00439,6.75488,.75342,1.96875,1.30908,3.89941,1.66064,5.80664l.78809,3.20703c.17529,.23242,7.41357-5.04395,21.72998-15.83301l21.20898-16.52344-1.39014-1.125c-.69287-.91895-.81641-1.55664-.35107-1.90723,.28857-.57324,2.42383-2.54688,6.40381-5.91113l5.97168-5.04395,.7832,1.03906c.1748,.23242,.49023,.53906,.95605,.90918,.46484,.37988,1.00977,.86719,1.65088,1.4707,.63574,.60645,1.24463,1.05371,1.82422,1.33984,2.37646,2.19629,4.40234,3.92773,6.08203,5.18848,1.6792,1.27148,3.85205,2.71387,6.51367,4.32129,2.48584,1.38477,3.71924,2.17676,3.69092,2.37695-.02881,.20801-1.22852,.6543-3.5957,1.35254-2.13916,.52539-4.59229,1.11035-7.36719,1.75-2.31055,.2998-5.08545,.21875-8.3252-.24121l-4.8584-.68164-51.24951,38.61914-50.90381,38.35938-.85791,3.90332c-.5127,2.20215-1.46143,4.5459-2.84619,7.03027-1.15332,2.32031-2.27734,4.43066-3.36768,6.33887-1.20996,1.27637-1.9165,1.90234-2.12012,1.86914-.20508-.02441-.38916-.87695-.56982-2.55664-.35059-1.90723-.90723-3.83887-1.66064-5.80664-.58398-1.73145-1.39551-4.01367-2.44385-6.8457-1.27637-2.65137-2.41064-4.87598-3.39697-6.66992-.81641-1.55566-1.19189-2.53711-1.13428-2.94531,.05615-.39746,.35742-.71973,.9082-.95605,.5498-.22754,2.99121-1.79492,7.31738-4.69922l5.88672-4.43555,1.21924,2.33789c.17529,.23242,.43604,.5791,.7832,1.03906,.28906,.86816,.52637,1.41895,.69727,1.64551l1.90723-.35059c1.6123-1.21484,7.96436-6.00098,19.04541-14.35156l20.43066-15.39551-5.65527-8.22559c-4-5.30762-6.07812-8.17871-6.22021-8.61523-.14697-.43164,2.20605-2.47559,7.0542-6.12891Zm28.54785,45.80859l52.63477-39.66309,2.60938,3.46289,2.00244,3.37793-21.81592,16.43945-21.55518,16.78516,10.69873,14.19727,10.95947,14.54395,19.39209-14.6123,19.04541-14.35254,2.34863,3.11719,2.26318,3.72461-19.04541,14.35156-19.0459,14.35156,10.43799,13.85156c6.95947,9.23535,11.01562,14.86523,12.17871,16.88184,.98682,1.79297,1.70117,3.69824,2.1377,5.71875,.44141,2.02734,.66211,3.76074,.66211,5.20215,.00488,1.44629,.09521,2.28711,.26611,2.51367,.17529,.23242,10.99561-7.74219,32.46533-23.9209l32.55078-24.52832,2.00195,3.37695,2.34863,3.11719-66.91797,50.96875c-19.16455,14.44141-35.2666,26.5752-48.30664,36.40137-13.04492,9.83008-19.77441,14.71387-20.17236,14.6582-.69238,.52246-1.82178-.25586-3.38721-2.33398l-2.34863-3.11621,30.9043-23.83203,31.16553-23.48438-15.13477-20.08398-15.39551-20.43066-20.43066,15.39551-20.08447,15.13477-2.60938-3.46289-2.34863-3.11719,20.08447-15.13477,20.43066-15.39551-10.95947-14.54395-10.69873-14.19727-23.46143,17.1377-23.20117,17.4834-2.34863-3.11719-2.60938-3.46289,52.28906-39.40332Zm57.31348,34.99219c.69287-.52246,2.33887-1.2207,4.93848-2.09277,2.82666-1.04395,5.31299-1.83203,7.45264-2.3584,2.5415-.46582,4.53467-.70312,5.98193-.70801,2.08203-.11914,4.2168,.08008,6.41846,.59277,2.25781,.11426,4.56787,.5459,6.94043,1.28516,1.96338,.69238,4.19385,1.72656,6.68457,3.10645,2.54688,.98242,3.90869,1.58496,4.08008,1.8125,.1748,.23242-1.52783,2.7793-5.09912,7.64258-3.34473,4.69141-5.13281,7.125-5.36035,7.2959-1.73633-.8623-4.63086-2.29492-8.68164-4.31641-4.98145-2.76074-9.4082-5.03223-13.28369-6.82031-3.29736-1.49414-5.93506-2.58496-7.89893-3.27734-1.79346-.45508-2.77539-.80176-2.9502-1.03418-.17139-.22656,.08496-.60645,.77734-1.12793Z"/><path d="M1473.26465,1898.94824l7.27197-5.47949,4.43604,5.8877,4.43604,5.88672,19.04541-14.35254,19.39209-14.6123-4.43604-5.88672-4.43604-5.8877,7.27148-5.48047,7.27246-5.47949,4.43555,5.8877,4.43652,5.88672,19.3916-14.6123,19.30664-14.00684,2.34863,3.11719,2.69482,2.85547-20.77734,15.65625c-13.62402,10.2666-20.34082,15.51562-20.16992,15.74316,.17529,.23242,.23193,1.27539,.18115,3.12012-.05273,1.85547-.46826,3.70312-1.24512,5.55273-.77344,1.85645-2.08984,3.47559-3.93506,4.86523l-2.42383,1.82715-2.60938-3.46289-2.34814-3.11621-20.43066,15.39551-20.08447,15.13477-.25146,3.98926c-.11426,2.25781-.54346,4.20996-1.2876,5.85645-.74951,1.65137-2.04688,3.1709-3.89209,4.56152l-2.42383,1.82715-2.34814-3.11719-2.69482-2.85449-19.65283,14.26562-19.73828,14.87402-2.34863-3.11621-2.34863-3.11719,19.47754-15.21973,19.73828-14.87305-4.17529-5.54102c-2.95605-3.92383-4.42285-5.98145-4.39355-6.19043,.02783-.2002,2.4668-2.13086,7.31494-5.78418Zm74.45898-14.30371l7.27197-5.48047,3.91406,5.19434,4.1748,5.54102,4.84814-3.65332,4.84814-3.65234-3.91406-5.19434-4.1748-5.54102,7.27148-5.48047,7.61865-5.74023,1.30469,1.73145c.28857,.86719,.81543,2.28613,1.57031,4.24512,.64014,1.33398,1.01514,3.03613,1.13867,5.11426l.26611,2.51465,7.96436-6.00195,8.22559-5.65625,2.34814,3.11719,2.34863,3.11719-18.35303,13.8291-18.69922,14.09082,17.4834,23.20117c11.48145,15.23633,18.52637,23.86523,21.13135,25.88086,2.37646,2.19727,4.02783,3.66797,4.95312,4.41113l1.21436,.17188-5.31885-12.82324c-2.15039-5.25-5.55176-13.36719-10.20166-24.34473-2.85156-7.62402-4.26172-11.53125-4.23242-11.74023,.02783-.2002,2.55664-1.29102,7.58057-3.26953,5.25537-2.14453,8.08789-3.19238,8.49121-3.1416l9.06738,21.39941c5.93115,13.63477,9.38428,22.06738,10.37695,25.29785,.87305,2.60059,1.62744,5.28906,2.27295,8.06055,.2373,2.72266,.53174,5.02832,.8833,6.93555,.11865,2.08203,.27051,3.24023,.44141,3.4668,.17529,.23242,2.13867,.92578,5.90137,2.06836,3.76172,1.15332,7.25781,1.95312,10.49854,2.4043,3.41064,.6875,6.6499,1.14746,9.71533,1.36523,1.61719,.23145,3.13525,.44531,4.5542,.64062,1.41455,.19824,2.52393,.35352,3.34033,.46875,1.84521,.05176,3.46777,1,4.86279,2.85059,1.39014,1.8457,1.85449,2.94629,1.39453,3.29297-.46533,.35059-2.59961,.87305-6.41357,1.5752-4.2793,1.05273-7.45703,1.63184-9.53516,1.75586-.23242,.1748-.76904,.30762-1.60303,.39355-.84033,.09082-1.57959,.18848-2.21045,.30859-.64062,.11816-1.04395,.05664-1.21484-.16992-2.48633,.06543-4.56885,.18457-6.24268,.36035-2.89453,.00977-6.06787-.12598-9.54053-.41113l-4.85791-.68262-.51709,1.47461c-.05713,.4082-.5459,2.40527-1.45996,5.98633-.80664,2.78027-2.01172,6.22461-3.61914,10.3291-1.55518,3.69922-3.4248,7.46582-5.61084,11.28613-2.59424,3.76172-5.16064,7.32422-7.69385,10.68359-2.54248,3.35742-4.01318,5.00879-4.41162,4.95312-.17529-.23242-.42725-.67969-.73975-1.3418-.32227-.66504,.06152-2.67676,1.15674-6.03027,1.26123-3.12207,2.38037-6.67969,3.35791-10.6748,.97168-3.99023,1.97266-9.62988,2.99658-16.91602,1.02393-7.28711,1.44873-11.40723,1.27295-12.36035-.17578-.9541-1.51172-2.11914-3.99707-3.50391-2.14014-.91406-4.83447-2.32812-8.07471-4.23047-2.66162-1.60742-5.29492-3.42383-7.90381-5.44531-2.78027-2.24805-4.86328-4.29199-6.25781-6.14258-1.96924-2.12988-3.73828-4.24121-5.3042-6.31934-2.49072-2.82129-8.17432-10.12695-17.04639-21.90137l-13.83008-18.35254-27.35645,20.61523-27.00977,20.35352,20.61426,27.35645c13.91992,18.47266,21.51562,29.03516,22.79248,31.68652,1.62207,3.12109,2.97656,6.36035,4.0542,9.70312,1.07666,3.35352,1.99512,6.73438,2.75488,10.14062,.58301,3.18262,.90869,6.37305,.97559,9.58008,.06152,3.21191-.06836,6.75391-.40967,10.62402-.51172,3.64355-1.14746,6.65039-1.88721,9.02344-.74902,2.37109-1.58398,4.62988-2.49902,6.76953-.74951,2.37109-1.55127,4.42578-2.41455,6.16309-.86328,1.73535-1.55518,2.97852-2.07275,3.73242l-.43164,.86914-2.0874-2.77051-2.34863-3.11621,.94873-2.34375c.63037-1.56055,1.17139-3.96191,1.63086-7.20215,.63037-3.00293,.9248-5.85352,.8916-8.54297-.03906-2.68555-.31396-5.82031-.84521-9.40723-.70264-3.81445-1.69482-7.0459-2.97021-9.70605-1.04443-2.82617-4.78809-8.51465-11.22607-17.05762l-9.65479-12.8125-4.50146,3.3916-4.58691,3.99902,5.47949,7.27246c3.59619,5.25586,5.79736,8.66113,6.61426,10.21777,.63965,1.33301,1.30859,3.17773,2.00684,5.5459,.75342,1.96777,1.42773,4.54004,2.01221,7.71289,.58252,3.18262,.84863,6.41797,.80225,9.70996-.05225,3.29785-.41748,6.65234-1.10449,10.06348-.68311,3.41602-1.43213,6.50684-2.2334,9.2832-.68848,1.96875-1.52344,4.22656-2.49951,6.76953l-1.38037,3.21289-.78271-1.03906c-.52197-.69238-.69775-2.36816-.53174-5.0293,.34131-2.42871,.33594-6.03809-.0249-10.83984-.18066-4.5625-.68408-9.07031-1.50488-13.52441-.82178-4.44531-1.75098-8.08887-2.7998-10.91992-1.21973-3.06055-3.77441-7.2832-7.66016-12.6875-3.88574-5.39355-6.0874-8.07812-6.6084-8.0498-.51758,.03418-1.59229,.65723-3.20459,1.87207l-2.42383,1.82715-2.0874-2.77051-2.34863-3.11621,12.46582-9.39453,12.46631-9.39355-5.74072-7.61914-6.00146-7.96387-4.50146,3.3916-4.84814,3.65332,.09473,3.72852c-.11377,2.25781-.56885,4.05176-1.375,5.37988-.63574,1.56543-1.76025,2.95508-3.37256,4.16992l-2.42383,1.82617-12.26416-16.27441-12.26465-16.27539,6.92529-5.21875,6.92578-5.21875,7.56738,10.04199,7.48242,10.64941,3.80908-2.87012,3.80908-2.87012-7.22119-10.30371-7.56738-10.04199,34.36719-26.44043,34.62842-26.09473-3.91406-5.19434c-2.43408-3.23047-3.625-5.04688-3.56787-5.45508-.1709-.22754,2.27686-2.25879,7.35742-6.08691Zm-34.89062,63.21094l5.88672-4.43652,1.56543,2.07715,1.56543,2.07812,16.96777-12.78613,16.96777-12.78613,2.08789,2.77051,2.0874,2.76953-8.65674,6.52344-8.65723,6.52441,6.00195,7.96484,6.34766,7.70312,2.33838-1.21973,2.07764-1.56543-1.82617-2.42383-1.56592-2.07812,6.2334-4.69727,6.23291-4.69727,7.04541,9.35059c4.3501,5.77246,7.1875,9.78516,8.52588,12.03516,.98682,1.79199,1.68359,3.4375,2.09229,4.9375,.18066,1.68066,.15186,3.33105-.0752,4.94336-.05273,1.85547-.48389,3.44336-1.29004,4.77246-.57422,1.16211-1.6416,2.14453-3.20215,2.95605l-2.07764,1.56543-1.30469-1.73145-1.30469-1.73145-2.42383,1.82617-2.07764,1.56641,6.00146,7.96484,6.0874,7.35645,8.65723-6.52344,8.91797-6.17773,2.0874,2.77051,2.08789,2.77051-17.66064,13.30859-18.00684,13.56836-.68799,2.68945c-.05225,1.85547-.51172,3.64453-1.37549,5.37988-.63574,1.56543-1.64062,2.86621-3.02588,3.91016l-1.73145,1.30469-28.7041-38.0918-28.44238-37.74414,6.2334-4.69727Zm15.27051,3.69336l-2.07764,1.56543,6.00195,7.96484,6.26221,8.31055,2.07764-1.56543,2.42383-1.82617-6.26221-8.31055-6.00195-7.96484-2.42383,1.82617Zm25.18213,14.68555c-6.69824,5.04785-10.07129,7.77637-10.12793,8.1748-.46533,.35059,.87305,2.59863,4.00439,6.75391l4.43604,5.88672,10.38867-7.82812,10.73438-8.08887-5.04297-5.97168-4.43604-5.88672-9.95654,6.95996Zm4.56543,24.79102l-2.07764,1.56543,6.00146,7.96484,6.00195,7.96387,2.07764-1.56543,2.42383-1.82617-6.00195-7.96387-6.00146-7.96484-2.42383,1.82617Z"/><path d="M1688.5874,1745.92139l40.51465-30.53027,2.60938,3.46289,2.34863,3.11621-3.80859,2.87061-3.46289,2.60938,11.91748,16.53613c8.3501,11.08105,12.87598,17.80664,13.57422,20.17432,1.10059,2.42871,1.88721,4.91455,2.3584,7.45264,.52588,2.13965,.84424,4.25049,.96777,6.32861-.05225,1.85498-.33838,3.51221-.85547,4.98828-.5166,1.4751-1.58691,2.82373-3.19971,4.03906l-2.77002,2.0874-18.78809-24.93164-18.7876-24.93262-29.08789,21.91943-29.08789,21.91895-2.34863-3.11621-2.60938-3.46289,40.51562-30.53027Zm-15.10205,32.55371l7.27197-5.47998,1.91162,1.81641,1.56592,2.07812,6.92578-5.21875,6.92578-5.21875-1.56641-2.07812-1.56543-2.07715,7.61816-5.74072,7.61865-5.74072,8.3501,11.08105c5.91602,7.85059,9.33643,12.87305,10.2666,15.06543,.92969,2.20117,1.85938,4.39258,2.79004,6.58398,.46973,2.54785,.8208,5.17529,1.05908,7.88965,.23682,2.72314,.0376,4.85693-.59277,6.41797-.22803,1.62207-1.15283,3.04102-2.76514,4.25586l-2.77051,2.08789-2.60938-3.46289-2.34863-3.11719-9.00293,6.78418-9.00391,6.78467,.18066,3.12207c.18066,1.68018,.03809,3.41602-.42188,5.20361-.22754,1.62207-1.26611,3.12695-3.11133,4.5166l-2.77051,2.08789-15.65625-20.77734c-10.4375-13.85156-15.62891-20.97607-15.57129-21.38379l7.27197-5.47998Zm22.89404,.12158c-4.62109,3.48193-6.83594,5.33789-6.66504,5.56445,.11816,.64111,2.00244,3.37793,5.65576,8.22559s5.62158,7.70801,5.9165,8.57178l.43604,1.2998,7.27197-5.47949,7.35742-6.0874-6.52344-8.65625-6.52344-8.65723-6.92578,5.21875Zm39.0874,28.09473l42.59277-32.0957,2.34814,3.11621,2.34863,3.11621-5.19434,3.91406-4.84766,3.65332,20.26807,27.61719c13.91992,18.47266,21.31201,29.00293,22.18506,31.60254,1.10059,2.42871,1.88379,4.9082,2.3584,7.45215,.46533,2.54297,.58545,4.9873,.36328,7.32715-.22754,2.34277-.51367,4.00098-.85596,4.98828-.34521,.98242-1.32861,2.08691-2.94092,3.30273l-2.42383,1.82617-27.39893-36.36035-27.13818-36.01367-29.78027,22.44141-29.78027,22.44141-2.34863-3.11719-2.34814-3.11523,42.59277-32.09668Zm-14.48975,34.80762l7.27197-5.48047,1.30469,1.73145c.87256,1.1582,1.5083,1.76562,1.91162,1.81641,.57812,.29492,3.08691-1.41895,7.5332-5.13281l6.5791-4.95801-1.56543-2.07812-1.56543-2.07715,7.61816-5.74072,7.61816-5.74072,9.30859,13.07324c6.4375,8.54297,10.10449,14.01758,11.00684,16.4082,.90137,2.40039,1.51367,4.65332,1.83691,6.75977,.32178,2.11621,.49951,4.15332,.53418,6.1123,.03271,1.96875-.2085,3.68652-.72559,5.16211-.51709,1.47461-1.58691,2.82422-3.19922,4.03906l-2.42383,1.82715-2.34863-3.11719-2.34863-3.11621-9.00391,6.78418c-6.00586,4.52637-8.91309,6.9043-8.74219,7.13184,.1748,.23242,.13477,1.61914-.12012,4.16211-.25146,2.54883-.63818,4.19629-1.15967,4.94629-.34229,.98633-1.32861,2.08691-2.94092,3.30176l-2.42383,1.82617-15.65723-20.77734-15.91699-21.12305,7.61816-5.74023Zm22.81543-149.12158l7.61816-5.74072,2.60938,3.46191c1.16162,2.02686,2.83203,5.55957,5.01025,10.61182,2.18262,5.05811,3.34033,7.79834,3.4873,8.23047,.14209,.43652,.56494,.38916,1.25732-.13281,.69287-.52197,3.23047-2.43408,7.61816-5.74072l8.65723-6.52344-1.12939-.77832c-.92529-.74365-1.56055-1.35156-1.91162-1.81641-.1709-.22754,.04443-.66113,.64697-1.30225,.60742-.63623,2.1748-1.91064,4.71777-3.82715l5.88672-4.43604,1.56592,2.07812c1.04346,1.38477,2.29102,3.52393,3.74365,6.40869,1.45117,2.89355,2.81787,5.66504,4.09424,8.31641,1.04785,2.83154,1.88867,5.63428,2.53418,8.40576,.53125,3.58643,.67578,6.54883,.45361,8.8877-.22754,2.34277-.72803,3.35645-1.51025,3.03809-.77832-.31201-1.98877-2.03076-3.61084-5.15186-1.45264-2.88379-3.39258-5.94287-5.83105-9.17822l-3.39209-4.50195-10.38867,7.82861-10.38867,7.82812,1.13867,5.11328c.81641,3.00781,1.34326,6.58936,1.58545,10.74951,.29932,3.76318,.33252,7.89355,.11523,12.40088,.00977,4.33643-.4126,8.81885-1.27051,13.44482-.45508,4.68652-.96729,8.32959-1.53564,10.9292l-.59766,4.25146-1.82178-.25635-2.08252-.60303,.34131-2.42822c-.06201-1.03906-.18066-3.84277-.36572-8.41064-.30029-3.75293-.85547-7.85596-1.67578-12.31055-1.04883-4.27393-2.12891-7.98145-3.23389-11.13574-1.10645-3.146-2.09521-6.02197-2.96777-8.62207-.93066-2.19238-2.48438-5.45752-4.66162-9.78906-2.17822-4.33057-4.25488-8.2793-6.22754-11.86621-2.38232-3.63428-4.08984-6.14795-5.13379-7.53271-1.62305-1.67041-2.20654-2.68066-1.74121-3.03125,.22705-.17139,3.03027-2.46289,8.39648-6.86914Zm.07861,149.24268l-6.92578,5.21875,5.65527,8.22559c4.00439,5.31348,6.14355,8.40039,6.43799,9.26465l.17578,.95312,7.27197-5.48047,7.61865-5.74023-6.78516-9.00293-6.52344-8.65723-6.92529,5.21875Zm37.81348-112.64697l6.23291-4.69727,22.18066,29.43359,22.18018,29.43457,4.25586,2.76514c3.24023,1.90186,5.93457,3.31641,8.07422,4.23145,2.31445,1.15723,4.74316,2.21924,7.29199,3.19141,2.60352,.57471,5.20801,1.14893,7.80859,1.71631,2.19629,.51758,4.94727,.80225,8.24023,.84912,2.83105,.40283,6.55957,.30762,11.18555-.28564,3.98926-.47021,6.16699-.57422,6.54688-.31836,.37402,.26123,.50977,2.60156,.40625,7.02344-.10938,4.42578-.3916,6.80908-.85156,7.15576-.46484,.35059-2.9502,.40771-7.45703,.19043-4.74316-.04688-8.41113-.35449-11.01562-.92871-2.42871-.34082-4.91504-.99512-7.46191-1.97754-2.77539-.80176-5.90137-2.06738-9.37402-3.79443-3.81934-2.18652-6.59961-3.71338-8.33594-4.57715l-2.7793-2.24854,.96289,4.16113c.87305,2.59863,1.54102,5.17432,2.01172,7.71289,.46973,2.54785,.76367,5.58447,.8877,9.104,.12305,3.52881-.04199,6.91162-.49707,10.14697-.45508,3.24414-1.19922,6.33301-2.2334,9.28418-.57422,2.60352-1.69824,5.43555-3.3623,8.50586-1.44141,2.89258-3.19727,5.84473-5.27051,8.85645-1.84961,2.83691-3.14453,4.7207-3.88965,5.64551l-1.12402,1.39062-.87354-2.59961c-.41211-1.50488-.18018-3.12109,.68311-4.85742,.63086-1.56055,1.4043-3.41699,2.3291-5.55469,.97266-2.54883,1.5752-5.35254,1.80176-8.41602,.45508-3.23633,.68262-6.2998,.67285-9.19434,.22168-3.05957-.01465-6.50391-.7168-10.31836-.58398-3.17334-1.26074-6.10742-2.01465-8.79688-.75879-2.68506-1.77832-5.35449-3.05371-8.01465-1.62744-3.11719-3.36865-6.14844-5.22412-9.09326-1.68457-2.70947-9.56934-13.41992-23.66016-32.11914l-21.13672-28.04883,6.57959-4.95801Z"/><path d="M1917.80762,1564.50488l7.61816-5.74121,10.69824,14.19727,10.95996,14.54395,11.42676-8.61084,11.08105-8.3501-10.95898-14.54395-10.35254-14.4585,7.27148-5.47949,7.61914-5.74072,10.69824,14.19727,11.30566,14.28271,9.34961-7.04541,9.69629-7.30664-2.26367-3.72363-2.34766-3.11621,7.27148-5.47949,7.61816-5.74121,38.35938,50.90332c25.57227,33.93652,38.93555,51.91895,40.09961,53.93604,1.16211,2.02588,2.14844,4.53955,2.96484,7.53711,.87402,2.6001,1.45312,5.05615,1.75195,7.36768,.11816,2.08203-.02441,3.81836-.42188,5.20361-.1709,1.21436-.55078,2.39893-1.11914,3.55811-.5791,1.15723-1.44238,2.17236-2.59473,3.04102l-1.73145,1.30469-4.52148-5.2793-4.17578-5.54102-47.44043,35.74902-47.78711,36.01074,.96387,4.16064c.46484,2.54199,.64453,4.94287,.53613,7.19629-.11426,2.25732-.65918,3.93213-1.63574,5.0332-.81152,1.33252-1.6748,2.34766-2.59473,3.04053l-1.73145,1.30518-45.92578-60.94531-45.92676-60.94629,7.27246-5.47998,7.61816-5.74072,2.34863,3.11621,2.60938,3.46289,10.3877-7.82861,10.04297-7.56689-10.69824-14.19727-10.95996-14.54395,7.61816-5.74072Zm9.2168,48.97461l-10.38867,7.82861,14.87402,19.73828,15.13477,20.08496,10.3877-7.82861,10.04297-7.56689-15.13477-20.08496-14.87402-19.73828-10.04199,7.56689Zm34.96582,46.40234l-10.3877,7.82861,16.43945,21.81543c10.78809,14.31738,16.26758,21.58887,16.43945,21.81641-.05859,.40771,.89355-.13135,2.85742-1.61133,1.95898-1.47607,4.53223-3.22754,7.70605-5.26367l10.38867-7.82812-16.7002-22.16211-16.7002-22.16211-10.04297,7.56689Zm1.74023-74.06201l-11.42773,8.61084,14.87402,19.73828,15.13477,20.08496,11.42676-8.61084,11.42773-8.61133-15.13477-20.08496-14.87402-19.73828-11.42676,8.61133Zm34.96582,46.40234l-11.42676,8.61084,10.95898,14.54395c7.13574,9.46875,11.31055,15.72998,12.53027,18.79004,1.22461,3.06445,2.00781,5.54492,2.3584,7.45215,.18066,1.68018,.44141,3.46777,.79297,5.37451-.05273,1.85498-.03613,2.83447,.0498,2.94873,.08984,.11914,4.97852-3.48047,14.6748-10.78662l14.88965-11.2207-16.7002-22.16211-16.7002-22.16211-11.42773,8.61133Zm1.04785-73.54053l-9.69629,7.30664,14.87305,19.73828,15.13477,20.08496,9.69629-7.30664,10.04199-7.56738-15.13477-20.08496-14.87305-19.73828-10.04199,7.56738Zm34.96582,46.40234l-9.69531,7.30664,10.69824,14.19727c7.13574,9.46875,11.16309,15.29834,12.09375,17.48926,1.16211,2.02734,1.97266,4.30713,2.44336,6.8457,.70215,2.37256,1.08203,4.80127,1.14453,7.28223l.44141,3.46777,13.1582-9.91602,13.15918-9.91602-16.70117-22.16211-16.7002-22.16211-10.04199,7.56738Z"/><path d="M2110.76758,1416.38379l7.61816-5.74023,12.78613,16.96777,12.78711,16.96777,7.27148-5.47998,7.27246-5.47998,2.60938,3.46289,2.60938,3.46289-7.27246,5.47998-7.27148,5.47998,13.56836,18.00684,13.83008,18.35352,.5166-1.47656c.22754-.1709,1.6084-3.38232,4.14062-9.63477l3.62402-8.16016,3.65332,4.84863,3.91406,5.19434-4.14062,9.63525-4.14062,9.63525,17.22266,22.85449c11.24805,15.41113,17.0791,23.86963,17.4873,25.36865,.5791,1.73633,1.07324,3.34814,1.48535,4.85303,.17676,1.67432,.03418,3.41064-.4209,5.2041-.46582,1.79248-.99121,3.36816-1.59473,4.72998-.60645,1.35596-1.83008,2.73633-3.67578,4.12695l-2.77051,2.0874-18.26562-24.23926-18.52734-24.58594-5.08887,11.979c-3.39648,7.98877-5.14844,12.02344-5.26172,12.10938-.11914,.08936-1.38867-1.48193-3.82715-4.71826l-3.65332-4.84766,5.43555-12.23975,5.08984-11.979-17.22266-22.85449-16.96094-22.50879-11.08105,8.3501-11.68848,8.26562-2.34863-3.11719-2.34863-3.11621,11.42773-8.61133,10.82031-8.69678-12.52539-16.62109c-8.35059-11.08105-12.49805-16.8208-12.43945-17.22852,.05566-.39893,2.50879-2.43457,7.35645-6.08789Zm83.49316-45.54346l7.61914-5.74072,2.78418,4.41602c2.2627,3.00293,3.66699,5.47412,4.22363,7.40576,.55469,1.93994,.91992,3.74219,1.0957,5.41748l.00488,2.16748,12.12012-9.13281,11.77344-8.87207-1.04395-1.38477-1.65039-1.4707,5.62598-4.78271c4.15527-3.13135,6.49316-5.07227,7.01074-5.82617l1.03906-.7832,3.5625,3.28809c2.54785,2.42383,4.86719,4.29688,6.9502,5.62061,2.43359,1.7876,4.8916,3.37256,7.38281,4.75244,2.48438,1.38525,3.61328,2.16309,3.38672,2.33447,.1748,.23242-1.03906,.78271-3.63867,1.65527-2.13965,.52686-4.5918,1.11035-7.36719,1.75146-2.54297,.4751-5.43164,.47998-8.67188,.01953l-4.85742-.68262-30.81934,23.22363-31.16504,23.48486-.08105,2.77539c-.46094,1.79736-1.26172,3.85254-2.41406,6.1626-.97754,2.55273-2.24316,4.94873-3.79883,7.20654-1.55566,2.2583-2.47949,3.31787-2.76855,3.17139-.28906-.13672-.51953-1.05029-.69922-2.73047-.17578-1.67432-.67285-3.64941-1.48828-5.93604-.81641-2.27783-1.74414-4.83643-2.79199-7.66846-1.10645-2.4248-2.14941-4.53076-3.13672-6.32422l-1.21875-2.33789,5.45508-3.56738c3.22949-2.43457,5.62988-4.05615,7.18652-4.87305,1.15234-.86865,1.83008-1.28613,2.03516-1.2627,.20312,.03467,.47852,.27588,.8252,.73584,.1748,.23242,.66406,1.12842,1.48047,2.68457l.95801,1.99268,10.04297-7.56738,9.69531-7.30664-6.00195-7.96484-6.2627-8.31055,7.61816-5.74072Zm24.17969,50.45898c.375,.26074,.5332,.95557,.48145,2.08057-.05664,1.12842-.57129,2.9668-1.54785,5.51025-.57422,2.604-1.46191,5.26562-2.6709,7.98389-1.15234,2.31885-2.64648,4.896-4.49121,7.72803-2.02148,2.60889-3.76172,4.73486-5.23242,6.38623-1.46973,1.65039-4.3125,4.25098-8.52441,7.78027-3.97949,3.36377-6.40332,5.19043-7.27148,5.47949-.86328,.29541-1.46191,.10938-1.7793-.55957-.31836-.65869,.47363-2.6123,2.37207-5.8584,1.49316-3.29785,3.02051-6.79883,4.57227-10.50342,1.37988-3.93311,2.41309-6.88379,3.10156-8.85205,.5166-2.19727,1.0293-5.11914,1.54102-8.76318,.73926-3.81396,.87598-8.43896,.40234-13.875,12.32422,3.38623,18.66699,5.20654,19.04688,5.46289Zm13.01465,21.95361l24.50098-17.91895,2.34766,3.11621,2.69531,2.85498-3.40918,26.45703c-1.30859,9.31836-2.78809,20.56104-4.43262,33.74463l-.67773,7.02539,3.91406,5.19434,4.1748,5.54004,24.58691-18.52686,24.93164-18.78809-4.1748-5.54004-4.1748-5.54102,7.61816-5.74072,7.96387-6.00146,4.08984,6.14746c2.72852,4.104,4.58301,7.0498,5.57031,8.8335,.5791,1.73535,1.01562,3.75635,1.31445,6.06641,.52246,2.13428,.6416,4.21729,.36133,6.24316-.28906,2.02539-.8584,3.9043-1.72168,5.64062-1.27051,1.6792-2.39551,3.06934-3.37207,4.17041l-1.4707,1.65137-3.39258-4.50195-3.73828-4.24072-25.625,19.30957-25.54004,18.70312,.0957,3.72852c.05664,2.48486,.00977,4.33545-.16113,5.55078-.40332,1.38916-1.07812,2.89062-2.02734,4.51367-.95312,1.6167-1.91895,2.98145-2.89551,4.08203l-1.4707,1.65137-10.17676-13.50586-10.17676-13.50488,.24609-6.15723c.3457-.98145,.58789-2.69922,.72559-5.16113,.13672-2.45312,.37793-5.62207,.71484-9.49756,.3418-3.87061,.67773-7.02588,1.01953-9.45508,.22168-3.06006,.51855-6.26904,.88867-9.62695,.36914-3.34961,.62305-6.25537,.76074-8.71729,.13672-2.45312,.23633-3.88574,.29395-4.29395,.1123-.80664,.29883-2.125,.55469-3.94678,.25586-1.8208,.32617-3.04541,.20801-3.68604l.25098-3.98975-15.23633,11.48145-15.23633,11.48145-2.34863-3.11621-2.60938-3.46289,24.24023-18.26611Zm-13.01172-39.60059c.22754-.17139,1.58887-1.01074,4.07031-2.52393,2.42871-1.10059,5.375-2.23389,8.83789-3.40283,3.29199-1.39502,6.52637-2.38232,9.70605-2.96973,2.9502-.40771,5.98145-.70801,9.10352-.88867,2.7168-.23242,5.89648-.09961,9.54004,.4126,3.23926,.46045,6.04297,1.06201,8.41504,1.80225,1.96387,.69141,2.80859,1.32764,2.51953,1.90186l-2.31836,9.89111c-1.25781,6.02002-2.17773,8.88574-2.75586,8.59131-.5791-.28467-2.40137-1.26172-5.4707-2.93604-2.49023-1.37988-5.16406-2.53027-8.0293-3.4502-2.86035-.91504-6.81055-1.83301-11.84277-2.74854-5.26172-.73389-10.03418-1.30371-14.3125-1.70215-4.33594,.01025-6.7207-.27197-7.15625-.85107-.43262-.57324-.53906-.95068-.30664-1.12598Z"/><path d="M2331.34082,1245.82715l7.61816-5.74072,13.56836,18.00684,13.30859,17.66113,6.9248-5.21924,7.1875-4.87305,2.34766,3.11621,2.34863,3.11719-6.9248,5.21875-6.92578,5.21924,12.78613,16.96777c8.34961,11.08105,12.5791,16.58008,12.69824,16.49072,.11328-.08594,1.3252-2.43994,3.62598-7.0752,2.35742-5.03418,3.65234-7.63916,3.88477-7.81445,.22754-.1709,1.53223,1.56055,3.91406,5.19434l3.65332,4.84863-3.53809,7.55273-3.62402,8.15967,17.74414,23.54688c12.00391,15.92969,18.44141,25.19336,19.31445,27.79346,1.10059,2.42773,1.71289,4.68115,1.83691,6.75977,.52246,2.1333,.64062,4.21631,.36035,6.24316-.11328,2.25684-.74316,4.53906-1.8916,6.85498-1.15723,2.31348-2.10547,3.93701-2.85059,4.86279l-1.03906,.78271-21.39746-28.39551c-5.91211-7.8457-13.16602-17.22461-21.74316-28.13428-.23242,.17529-1.69922,3.27344-4.40234,9.28906-.80664,1.3374-1.52734,2.7793-2.1582,4.34082-.63574,1.56494-1.35156,3.01172-2.1582,4.34082l-3.99902-4.5874-3.73828-4.23975,4.48633-9.89746,4.4873-9.896-16.00293-20.51514-15.91699-21.12402-8.65723,6.52344-8.91797,6.17773-2.00293-3.37793-2.34766-3.11621,8.39551-6.86914,8.65723-6.52393-13.30859-17.66113c-8.69629-11.54102-13.13281-17.42773-13.30762-17.66016,.05664-.39795,2.62305-2.52002,7.7041-6.34814Zm42.01953-17.00586l7.61816-5.74072,2.17285,2.16406,1.56543,2.07715,29.78027-22.44092,29.78027-22.44141-1.56543-2.07715-1.82617-2.4248,5.88672-4.43604,5.62598-4.78174,10.69824,14.19727c7.13574,9.46875,11.14648,15.03906,12.04883,16.70898,.90137,1.68018,1.49609,3.67529,1.79199,5.97949,.11816,2.08301-.06738,4.12256-.55078,6.11572-.48828,1.99658-1.24707,3.74756-2.28516,5.25098-.9834,1.10498-1.63086,1.6875-1.94824,1.73975-.31836,.06055-1.25977-.95117-2.8252-3.0293l-2.34863-3.11621-29.78027,22.44141-29.78027,22.44092,20.87598,27.70215c14.09082,18.69922,21.7998,29.17725,23.13867,31.42676,1.68359,2.71826,3.50977,5.86279,5.48438,9.43994,2.14453,3.81348,3.74805,7.13574,4.79199,9.96191,1.04883,2.83154,2.01855,5.80859,2.92578,8.92578,.90137,3.12061,1.62012,5.75195,2.14258,7.88574,.29395,2.31445,.55957,4.82861,.79785,7.54297,.23242,2.71826,.21289,5.81152-.06543,9.27881-.74512,3.81934-1.49414,6.91064-2.23438,9.28369-.74902,2.37256-1.66992,4.5166-2.75977,6.42383l-1.29492,2.60449-2.34961-3.11621c-1.56445-2.07812-2.23828-3.9292-2.00684-5.54541,.22266-1.61816,.2627-3.72705,.11621-6.33105-.15234-2.6001-.54883-5.28711-1.18945-8.06201-.64551-2.77051-1.30957-5.34082-2.01172-7.71387-.87305-2.59863-2.12598-5.45605-3.74805-8.57617l-2.09277-4.93799-41.22949-54.71289-40.96777-54.36719,7.61816-5.74072Zm46.35645-17.01465l-29.78027,22.44092,6.26172,8.31055,6.2627,8.31152,29.78027-22.44092,29.78027-22.44141-6.2627-8.31152-6.26172-8.31055-29.78027,22.44141Zm30.66602,24.125l7.61816-5.74072,12.52539,16.62109,12.26465,16.27539,4.15527-3.13135c2.53809-1.91211,4.41602-3.50586,5.62598-4.78174l1.73145-1.30469-10.4375-13.85156-9.83105-13.76611,6.2334-4.69678,6.2334-4.69678,9.91504,13.1582c6.8418,8.60498,10.8125,14.1123,11.91895,16.53613,1.09961,2.42871,1.8584,4.39258,2.26758,5.8916,.40723,1.50879,.48438,3.16406,.22754,4.98584-.25488,1.82178-.67383,3.31592-1.24707,4.46924-.63574,1.56494-1.64062,2.86572-3.02637,3.90918l-2.07715,1.56592-2.34863-3.11719-2.60938-3.46289-5.88672,4.43604-5.88672,4.43604,13.83008,18.35352c8.81445,12.18115,13.42578,19.021,13.83496,20.521,.57812,1.73535,.78809,3.20654,.61621,4.4209,.18066,1.68018,.36523,2.5332,.57031,2.55664,.20312,.03467,3.21484-2.32959,9.0459-7.08789l8.74219-7.13086-11.2207-14.88965-11.21973-14.89062,6.5791-4.95801,6.5791-4.95801,11.39648,15.84375c4.69727,6.2334,7.89941,10.60645,9.6123,13.11621,1.70703,2.51416,2.70801,4.20215,3.00293,5.06592,.57812,1.73633,1.04688,3.19043,1.39746,4.37646,.34668,1.18066,.46777,2.90527,.3584,5.15869-.23242,1.61719-.65918,3.21143-1.29004,4.77246-.81152,1.3335-1.90234,2.52002-3.28711,3.56396l-1.73145,1.30469-2.34863-3.11719-2.69434-2.85547-16.27539,12.26416c-10.62109,8.00391-17.80762,13.59766-21.55469,16.78613l-4.58789,3.99902,2.08789,2.77051,2.08789,2.77051-2.07812,1.56592c-1.38477,1.04346-2.83203,1.76904-4.33105,2.17676-1.90723,.35156-3.55762,.32275-4.94336-.0752-1.79785-.46094-3.18262-.8584-4.16504-1.2041-.75391-.51807-2.20312-1.59717-4.34277-3.24268-2.14453-1.64111-6.95312-7.42578-14.43457-17.35352l-11.48145-15.2373,6.5791-4.95801,6.5791-4.95801,11.48145,15.2373,11.48145,15.23633,6.92578-5.21875,6.92578-5.21924-16.17871-21.46973-15.91797-21.12305-6.9248,5.21924-6.58008,4.95752,2.08789,2.76953,2.34863,3.11719-2.07812,1.56592c-1.38477,1.04395-3.17578,1.67236-5.37207,1.87598-2.19727,.21436-4.07324-.00098-5.6377-.63721-1.96973-.6875-3.90527-1.5791-5.81641-2.67529-1.85547-1.49414-6.27246-6.7583-13.26074-15.7959-6.98926-9.02783-10.62793-13.97949-10.91699-14.84717l-.7832-1.03906,6.2334-4.69727,6.49414-4.3501,10.78418,13.58936c6.95898,9.23633,10.65527,13.78125,11.08789,13.6333,.43555-.14111,2.72754-1.7832,6.88281-4.91455l5.97266-5.04395-12.26562-16.27539-12.52539-16.62109,7.27246-5.47949Z"/><path d="M2567.52051,1074.36768l7.27148-5.47998,6.00195,7.96484c4.00391,5.31348,6.27637,8.93701,6.83203,10.86816,.55469,1.94043,.88672,3.94629,1.01172,6.02441-.46094,1.79688-1.11914,3.55811-1.9834,5.29395-.86328,1.73633-2.21973,3.30176-4.06445,4.69238l-2.85645,2.69531-9.6543-12.8125c-6.2627-8.31152-9.4707-12.68066-9.6123-13.11719-.14746-.43115,2.20605-2.47656,7.05371-6.12939Zm19.3291,34.29736l25.2793-19.04883,2.34863,3.11621,2.60938,3.46289-25.2793,19.04883-24.93164,18.7876-2.95605-3.20166-2.34863-3.11621,25.27832-19.04883Zm-5.07129,58.11279c-.69238-.91895-.92969-1.4707-.69727-1.646,.22754-.1709,2.97852,.11475,8.24023,.84863,5.26074,.74316,10.00488,1.51172,14.22754,2.30908,4.16504,1.20459,8.12598,2.38525,11.8877,3.52881,3.93262,1.37891,7.43359,2.90723,10.50391,4.57178,3.30176,1.5,6.16797,3.14111,8.5957,4.92383,2.25879,1.55518,4.3125,3.08691,6.16797,4.58203,1.79297,1.90576,2.66602,3.06396,2.60938,3.46289l-4.83789,7.98926c-3.16895,4.92383-4.83887,7.26758-5.01367,7.03516-.23242,.17529-2.34375-1.66943-6.34375-5.53516-3.99414-3.86084-8.02734-7.52393-12.07812-10.98584-4.40332-3.91846-7.81934-6.77344-10.25195-8.5625-2.42969-1.78271-5.06836-3.59473-7.9043-5.44482-2.42969-1.78271-4.67578-3.07666-6.72949-3.88721-2.05469-.80176-3.78809-1.30176-5.20703-1.50586-1.41895-.19482-2.47168-.7583-3.16895-1.68408Zm37.00391-49.6001l7.96484-6.00146,.78223,1.03809c.52246,.69336,6.20996,10.16699,17.06152,28.40576l16.625,27.10498,.87695,4.76758c.4707,2.54785,.75293,5.3208,.84375,8.32324,.09473,3.00781-.23535,5.69873-.97949,8.06689-.80664,2.7793-1.66504,5.24219-2.58496,7.37744-.9209,2.14355-2.14844,3.51953-3.67578,4.12695-1.5332,.6123-2.38184,.80225-2.55664,.56982l-.35645-4.0752c-.29492-2.30566-.76465-4.85352-1.40527-7.62842-.64551-2.77051-1.39941-5.45996-2.27344-8.05908-1.04297-2.82666-7.19727-12.67139-18.4502-29.52979-11.43066-17.08203-17.48926-26.08936-18.18555-27.01416l-1.30469-1.73145,7.61816-5.74121Zm11.75684-92.46973l7.61816-5.74023,12.78613,16.96777,12.78613,16.96777,15.58301-11.74268,15.23633-11.48145,2.60938,3.46289,2.60938,3.46289-15.23633,11.48145-15.58301,11.74268,9.65527,12.8125c6.43848,8.54297,10.11914,13.91211,11.0498,16.10449,1.16211,2.02588,1.91699,3.98486,2.26758,5.8916,.35156,1.90771,.46973,3.26855,.35742,4.0752l.08984,1.56104,7.96387-6.00146,7.96484-6.00195-1.30469-1.73145-1.04395-1.38574,7.61816-5.74072,7.27246-5.47998,21.6582,28.74219c14.6123,19.3916,22.41211,29.98926,23.39941,31.77246,.9248,2.19531,1.59473,4.04102,2.00684,5.5459,.35156,1.90674,.4082,3.6709,.18555,5.28857-.05664,1.85059-.51172,3.64404-1.375,5.37988-.86328,1.73633-2.10645,3.21631-3.71875,4.43115l-2.50977,2.43457-5.21875-6.92578-5.21875-6.92578-19.0459,14.35156-18.69922,14.09131,.43652,1.2998,1.65625,3.63818c.57812,1.73535,.95898,3.43408,1.13867,5.11426-.05664,1.84961-.16602,3.38184-.33691,4.59619-.16992,1.21436-.6875,2.69043-1.5498,4.42676-.86328,1.73584-2.10742,3.21631-3.71973,4.43115l-2.42383,1.82666-27.05273-36.62158-27.1377-36.01367,7.27148-5.47949,7.61816-5.74072,1.04395,1.38574,1.30469,1.73145,5.54102-4.17529,5.88672-4.43604-29.22559-38.78418-29.4873-39.12988,7.27246-5.47998Zm26.59961,180.83594l23.54785-17.74414,2.34766,3.11621,2.60938,3.46289-23.54688,17.74414-23.20117,17.48291-2.95605-3.20166-2.34766-3.11621,23.54688-17.74414Zm37.41699-96.60352c-12.4668,9.39404-18.62891,14.30859-18.48145,14.74121,.14258,.43604,5.35156,7.46143,15.61426,21.08057l15.39551,20.43066,19.0459-14.35205,18.69922-14.09082-15.65625-20.77734-15.91797-21.12305-18.69922,14.09082Z"/></g><path d="M1121.67383,2201.74219l36.52344,141.5625-2.43896,1.83789-126.18506-73.99805,8.36475-6.30273,105.91602,61.8291-30.51025-118.65137,8.33008-6.27734Z"/></g><g id="LOGO_MAIN_1"><path d="M1398.63251,483.27354h70.78652v144.94382l3.37079,144.94382h185.39326l188.76404,3.37079v-47.19101h74.1573l74.1573,3.37079v222.47191c0,152.80899-1.1236,237.07865-3.37079,252.80899s-5.61798,31.46067-10.11236,47.19101c-6.74157,13.48315-16.85393,28.08989-30.33708,43.82022-13.48315,13.48315-26.96629,22.47191-40.44944,26.96629-13.48315,4.49438-26.96629,6.74157-40.44944,6.74157h-23.59551v-74.1573h-377.52809v402.80899c0,30.33708-1.1236,51.1236-3.37079,62.35955-4.49438,13.48315-8.98876,25.8427-13.48315,37.07865l-20.22472,26.96629c-8.98876,8.98876-21.34831,17.97753-37.07865,26.96629-15.73034,6.74157-31.46067,10.11236-47.19101,10.11236h-23.59551v-566.29213h-397.75281l-10.11236,16.85393c-4.49438,8.98876-11.23596,17.97753-20.22472,26.96629-8.98876,6.74157-19.10112,12.92135-30.33708,18.53933-11.23596,5.61798-25.8427,9.55056-43.82022,11.79775h-26.96629V729.34096h144.94382v47.19101l192.13483-3.37079h188.76404l3.37079-144.94382v-144.94382h74.1573Zm-266.29213,353.93258h-192.13483v357.30337h192.13483l188.76404-3.37079v-353.93258h-188.76404Zm525.8427,0h-188.76404v357.30337h377.52809v-357.30337h-188.76404Z"/><path d="M2918.25135,2040.70605l-414.17623,1000h-21.60904l-417.5182-1000h77.5301l350.80137,837.71347,346.93449-837.71347h78.03751Z"/><path class="cls-1" d="M1825,0C817.08032,0,0,817.08032,0,1825s817.08032,1825,1825,1825,1825-817.08032,1825-1825S2832.91968,0,1825,0Zm0,3450c-897.46265,0-1625-727.53735-1625-1625S927.53735,200,1825,200s1625,727.53735,1625,1625-727.53735,1625-1625,1625Z"/></g></svg>